<?xml version="1.0" encoding="UTF-8"?>
<!-- Generated by Pixelmator Pro 3.7 -->
<svg width="800" height="800" viewBox="0 0 800 800" xmlns="http://www.w3.org/2000/svg">
    <path id="Rectangle" fill="#ffffff" fill-rule="evenodd" stroke="none" visibility="hidden" d="M 0 800 L 800 800 L 800 0 L 0 0 Z"/>
    <path id="Circle" fill="#ffffff" fill-rule="evenodd" stroke="none" d="M 800 400 C 800 179.086121 620.913879 0 400 0 C 179.086105 0 0 179.086121 0 400 C 0 620.913879 179.086105 800 400 800 C 620.913879 800 800 620.913879 800 400 Z"/>
    <g id="g3">
        <path id="polygon1" fill="#000000" stroke="none" d="M 451.302429 128.125 L 451.302429 546.72229 L 109.009155 546.72229 Z"/>
        <path id="path2" fill="#000000" stroke="none" d="M 484.080902 224.848389 C 585.103088 271.598022 704.395203 396.801056 688.812012 546.72229 L 484.080902 546.72229 Z"/>
        <path id="path3" fill="#000000" stroke="none" d="M 645.286499 576.814026 L 551.787292 576.814026 L 189.611969 576.814026 L 189.611969 656.175293 C 199.427795 662.103088 199.821655 662.25293 204.657806 664.939697 C 215.942215 669.775879 228.838669 673 241.735107 673 L 392.193695 673 L 542.652283 673 C 553.413574 673 557.144409 672.097534 564.146362 670.313232 C 591.013916 664.939697 608.209167 643.982971 608.209167 643.982971 L 660.86969 577.888672 L 645.286499 577.888672 Z"/>
    </g>
</svg>
